<mxfile host="Electron" modified="2023-10-17T14:49:47.394Z" agent="Mozilla/5.0 (X11; Linux x86_64) AppleWebKit/537.36 (KHTML, like Gecko) draw.io/22.0.2 Chrome/114.0.5735.289 Electron/25.8.4 Safari/537.36" etag="IsxHQ4bb_aO8tDlvnVwH" version="22.0.2" type="device">
  <diagram name="Page-1" id="qsq5kdA_PKDA6FZzttXY">
    <mxGraphModel dx="941" dy="1681" grid="1" gridSize="10" guides="1" tooltips="1" connect="1" arrows="1" fold="1" page="1" pageScale="1" pageWidth="850" pageHeight="1100" math="0" shadow="0">
      <root>
        <mxCell id="0" />
        <mxCell id="1" parent="0" />
        <mxCell id="CtAxv3VmGFunPMmdJVhV-1" value="" style="rounded=0;whiteSpace=wrap;html=1;" vertex="1" parent="1">
          <mxGeometry x="80" y="-1060" width="680" height="570" as="geometry" />
        </mxCell>
        <mxCell id="CtAxv3VmGFunPMmdJVhV-2" value="Teacher" style="shape=umlActor;verticalLabelPosition=bottom;verticalAlign=top;html=1;outlineConnect=0;" vertex="1" parent="1">
          <mxGeometry x="20" y="-1010" width="30" height="60" as="geometry" />
        </mxCell>
        <mxCell id="CtAxv3VmGFunPMmdJVhV-3" value="Student" style="shape=umlActor;verticalLabelPosition=bottom;verticalAlign=top;html=1;outlineConnect=0;" vertex="1" parent="1">
          <mxGeometry x="20" y="-680" width="30" height="60" as="geometry" />
        </mxCell>
        <mxCell id="CtAxv3VmGFunPMmdJVhV-4" value="Meeting&lt;br&gt;platform" style="shape=umlActor;verticalLabelPosition=bottom;verticalAlign=top;html=1;outlineConnect=0;" vertex="1" parent="1">
          <mxGeometry x="790" y="-840" width="30" height="60" as="geometry" />
        </mxCell>
        <mxCell id="CtAxv3VmGFunPMmdJVhV-5" value="&lt;font size=&quot;1&quot;&gt;Send course proposal&lt;/font&gt;" style="ellipse;whiteSpace=wrap;html=1;" vertex="1" parent="1">
          <mxGeometry x="190" y="-1040" width="70" height="40" as="geometry" />
        </mxCell>
        <mxCell id="CtAxv3VmGFunPMmdJVhV-6" value="&lt;font size=&quot;1&quot;&gt;Create class&lt;/font&gt;" style="ellipse;whiteSpace=wrap;html=1;" vertex="1" parent="1">
          <mxGeometry x="190" y="-990" width="70" height="40" as="geometry" />
        </mxCell>
        <mxCell id="CtAxv3VmGFunPMmdJVhV-7" value="&lt;font size=&quot;1&quot;&gt;Join class&lt;/font&gt;" style="ellipse;whiteSpace=wrap;html=1;" vertex="1" parent="1">
          <mxGeometry x="240" y="-770" width="70" height="40" as="geometry" />
        </mxCell>
        <mxCell id="CtAxv3VmGFunPMmdJVhV-8" value="&lt;font size=&quot;1&quot;&gt;Add a class timetable&lt;/font&gt;" style="ellipse;whiteSpace=wrap;html=1;" vertex="1" parent="1">
          <mxGeometry x="190" y="-940" width="70" height="40" as="geometry" />
        </mxCell>
        <mxCell id="CtAxv3VmGFunPMmdJVhV-10" value="&lt;font size=&quot;1&quot;&gt;Subscribe to course&lt;/font&gt;" style="ellipse;whiteSpace=wrap;html=1;" vertex="1" parent="1">
          <mxGeometry x="240" y="-620" width="70" height="40" as="geometry" />
        </mxCell>
        <mxCell id="CtAxv3VmGFunPMmdJVhV-11" value="&lt;font size=&quot;1&quot;&gt;Choose payment method&lt;/font&gt;" style="ellipse;whiteSpace=wrap;html=1;" vertex="1" parent="1">
          <mxGeometry x="380" y="-560" width="70" height="40" as="geometry" />
        </mxCell>
        <mxCell id="CtAxv3VmGFunPMmdJVhV-12" value="&lt;font size=&quot;1&quot;&gt;Write course description&lt;/font&gt;" style="ellipse;whiteSpace=wrap;html=1;" vertex="1" parent="1">
          <mxGeometry x="190" y="-890" width="70" height="40" as="geometry" />
        </mxCell>
        <mxCell id="CtAxv3VmGFunPMmdJVhV-13" value="&lt;font size=&quot;1&quot;&gt;Choose language&lt;/font&gt;" style="ellipse;whiteSpace=wrap;html=1;" vertex="1" parent="1">
          <mxGeometry x="380" y="-610" width="70" height="40" as="geometry" />
        </mxCell>
        <mxCell id="CtAxv3VmGFunPMmdJVhV-14" value="&lt;font size=&quot;1&quot;&gt;Choose subject&lt;/font&gt;" style="ellipse;whiteSpace=wrap;html=1;" vertex="1" parent="1">
          <mxGeometry x="385" y="-660" width="70" height="40" as="geometry" />
        </mxCell>
        <mxCell id="CtAxv3VmGFunPMmdJVhV-15" value="&lt;font size=&quot;1&quot;&gt;Login&lt;/font&gt;" style="ellipse;whiteSpace=wrap;html=1;" vertex="1" parent="1">
          <mxGeometry x="400" y="-715" width="70" height="40" as="geometry" />
        </mxCell>
        <mxCell id="CtAxv3VmGFunPMmdJVhV-16" value="&lt;font size=&quot;1&quot;&gt;Create account&lt;/font&gt;" style="ellipse;whiteSpace=wrap;html=1;" vertex="1" parent="1">
          <mxGeometry x="560" y="-680" width="70" height="40" as="geometry" />
        </mxCell>
        <mxCell id="CtAxv3VmGFunPMmdJVhV-17" value="" style="endArrow=classic;html=1;rounded=0;entryX=0;entryY=0.5;entryDx=0;entryDy=0;" edge="1" parent="1" source="CtAxv3VmGFunPMmdJVhV-2" target="CtAxv3VmGFunPMmdJVhV-5">
          <mxGeometry width="50" height="50" relative="1" as="geometry">
            <mxPoint x="380" y="-880" as="sourcePoint" />
            <mxPoint x="430" y="-930" as="targetPoint" />
          </mxGeometry>
        </mxCell>
        <mxCell id="CtAxv3VmGFunPMmdJVhV-18" value="" style="endArrow=classic;html=1;rounded=0;entryX=0;entryY=0.5;entryDx=0;entryDy=0;" edge="1" parent="1" source="CtAxv3VmGFunPMmdJVhV-2" target="CtAxv3VmGFunPMmdJVhV-6">
          <mxGeometry width="50" height="50" relative="1" as="geometry">
            <mxPoint x="50" y="-980" as="sourcePoint" />
            <mxPoint x="200" y="-1010" as="targetPoint" />
          </mxGeometry>
        </mxCell>
        <mxCell id="CtAxv3VmGFunPMmdJVhV-19" value="" style="endArrow=classic;html=1;rounded=0;entryX=0;entryY=0.5;entryDx=0;entryDy=0;" edge="1" parent="1" source="CtAxv3VmGFunPMmdJVhV-2" target="CtAxv3VmGFunPMmdJVhV-8">
          <mxGeometry width="50" height="50" relative="1" as="geometry">
            <mxPoint x="60" y="-970" as="sourcePoint" />
            <mxPoint x="200" y="-960" as="targetPoint" />
          </mxGeometry>
        </mxCell>
        <mxCell id="CtAxv3VmGFunPMmdJVhV-20" value="" style="endArrow=classic;html=1;rounded=0;entryX=0;entryY=0.5;entryDx=0;entryDy=0;" edge="1" parent="1" source="CtAxv3VmGFunPMmdJVhV-2" target="CtAxv3VmGFunPMmdJVhV-12">
          <mxGeometry width="50" height="50" relative="1" as="geometry">
            <mxPoint x="60" y="-964" as="sourcePoint" />
            <mxPoint x="200" y="-910" as="targetPoint" />
          </mxGeometry>
        </mxCell>
        <mxCell id="CtAxv3VmGFunPMmdJVhV-21" value="" style="endArrow=classic;html=1;rounded=0;entryX=0.5;entryY=0;entryDx=0;entryDy=0;" edge="1" parent="1" source="CtAxv3VmGFunPMmdJVhV-2" target="CtAxv3VmGFunPMmdJVhV-7">
          <mxGeometry width="50" height="50" relative="1" as="geometry">
            <mxPoint x="60" y="-959" as="sourcePoint" />
            <mxPoint x="200" y="-860" as="targetPoint" />
          </mxGeometry>
        </mxCell>
        <mxCell id="CtAxv3VmGFunPMmdJVhV-22" value="" style="endArrow=classic;html=1;rounded=0;entryX=0;entryY=0.5;entryDx=0;entryDy=0;" edge="1" parent="1" source="CtAxv3VmGFunPMmdJVhV-3" target="CtAxv3VmGFunPMmdJVhV-7">
          <mxGeometry width="50" height="50" relative="1" as="geometry">
            <mxPoint x="60" y="-949" as="sourcePoint" />
            <mxPoint x="235" y="-705" as="targetPoint" />
          </mxGeometry>
        </mxCell>
        <mxCell id="CtAxv3VmGFunPMmdJVhV-23" value="" style="endArrow=classic;html=1;rounded=0;entryX=0;entryY=0.5;entryDx=0;entryDy=0;" edge="1" parent="1" source="CtAxv3VmGFunPMmdJVhV-3" target="CtAxv3VmGFunPMmdJVhV-10">
          <mxGeometry width="50" height="50" relative="1" as="geometry">
            <mxPoint x="60" y="-449" as="sourcePoint" />
            <mxPoint x="235" y="-665" as="targetPoint" />
          </mxGeometry>
        </mxCell>
        <mxCell id="CtAxv3VmGFunPMmdJVhV-38" value="Includes" style="endArrow=classic;html=1;rounded=0;exitX=1;exitY=1;exitDx=0;exitDy=0;entryX=0;entryY=0.5;entryDx=0;entryDy=0;" edge="1" parent="1" source="CtAxv3VmGFunPMmdJVhV-10" target="CtAxv3VmGFunPMmdJVhV-11">
          <mxGeometry relative="1" as="geometry">
            <mxPoint x="350" y="-510" as="sourcePoint" />
            <mxPoint x="450" y="-510" as="targetPoint" />
          </mxGeometry>
        </mxCell>
        <mxCell id="CtAxv3VmGFunPMmdJVhV-40" value="Includes" style="endArrow=classic;html=1;rounded=0;exitX=0.5;exitY=0;exitDx=0;exitDy=0;entryX=0;entryY=0.5;entryDx=0;entryDy=0;" edge="1" parent="1" source="CtAxv3VmGFunPMmdJVhV-10" target="CtAxv3VmGFunPMmdJVhV-15">
          <mxGeometry relative="1" as="geometry">
            <mxPoint x="270" y="-370" as="sourcePoint" />
            <mxPoint x="380" y="-370" as="targetPoint" />
          </mxGeometry>
        </mxCell>
        <mxCell id="CtAxv3VmGFunPMmdJVhV-41" value="Extends" style="endArrow=classic;html=1;rounded=0;exitX=1;exitY=0.5;exitDx=0;exitDy=0;entryX=0;entryY=0.5;entryDx=0;entryDy=0;" edge="1" parent="1" source="CtAxv3VmGFunPMmdJVhV-10" target="CtAxv3VmGFunPMmdJVhV-13">
          <mxGeometry relative="1" as="geometry">
            <mxPoint x="270" y="-370" as="sourcePoint" />
            <mxPoint x="380" y="-370" as="targetPoint" />
          </mxGeometry>
        </mxCell>
        <mxCell id="CtAxv3VmGFunPMmdJVhV-42" value="Extends" style="endArrow=classic;html=1;rounded=0;exitX=1;exitY=0;exitDx=0;exitDy=0;entryX=0;entryY=0.5;entryDx=0;entryDy=0;" edge="1" parent="1" source="CtAxv3VmGFunPMmdJVhV-10" target="CtAxv3VmGFunPMmdJVhV-14">
          <mxGeometry relative="1" as="geometry">
            <mxPoint x="260" y="-384" as="sourcePoint" />
            <mxPoint x="380" y="-420" as="targetPoint" />
          </mxGeometry>
        </mxCell>
        <mxCell id="CtAxv3VmGFunPMmdJVhV-43" value="Extends" style="endArrow=classic;html=1;rounded=0;exitX=1;exitY=1;exitDx=0;exitDy=0;entryX=0;entryY=0.5;entryDx=0;entryDy=0;" edge="1" parent="1" source="CtAxv3VmGFunPMmdJVhV-15" target="CtAxv3VmGFunPMmdJVhV-16">
          <mxGeometry relative="1" as="geometry">
            <mxPoint x="260" y="-384" as="sourcePoint" />
            <mxPoint x="380" y="-470" as="targetPoint" />
          </mxGeometry>
        </mxCell>
        <mxCell id="CtAxv3VmGFunPMmdJVhV-44" value="" style="endArrow=classic;html=1;rounded=0;" edge="1" parent="1" source="CtAxv3VmGFunPMmdJVhV-7" target="CtAxv3VmGFunPMmdJVhV-4">
          <mxGeometry width="50" height="50" relative="1" as="geometry">
            <mxPoint x="400" y="-680" as="sourcePoint" />
            <mxPoint x="450" y="-730" as="targetPoint" />
          </mxGeometry>
        </mxCell>
        <mxCell id="CtAxv3VmGFunPMmdJVhV-45" value="Google API" style="shape=umlActor;verticalLabelPosition=bottom;verticalAlign=top;html=1;outlineConnect=0;" vertex="1" parent="1">
          <mxGeometry x="790" y="-725" width="30" height="60" as="geometry" />
        </mxCell>
        <mxCell id="CtAxv3VmGFunPMmdJVhV-46" value="" style="endArrow=classic;html=1;rounded=0;exitX=1;exitY=0;exitDx=0;exitDy=0;" edge="1" parent="1" source="CtAxv3VmGFunPMmdJVhV-15" target="CtAxv3VmGFunPMmdJVhV-45">
          <mxGeometry width="50" height="50" relative="1" as="geometry">
            <mxPoint x="650" y="-710" as="sourcePoint" />
            <mxPoint x="700" y="-760" as="targetPoint" />
          </mxGeometry>
        </mxCell>
        <mxCell id="CtAxv3VmGFunPMmdJVhV-47" style="edgeStyle=orthogonalEdgeStyle;rounded=0;orthogonalLoop=1;jettySize=auto;html=1;exitX=0.5;exitY=1;exitDx=0;exitDy=0;" edge="1" parent="1" source="CtAxv3VmGFunPMmdJVhV-1" target="CtAxv3VmGFunPMmdJVhV-1">
          <mxGeometry relative="1" as="geometry" />
        </mxCell>
        <mxCell id="CtAxv3VmGFunPMmdJVhV-48" value="&lt;font size=&quot;1&quot;&gt;Attach cv / certifications&lt;/font&gt;" style="ellipse;whiteSpace=wrap;html=1;" vertex="1" parent="1">
          <mxGeometry x="400" y="-1040" width="70" height="40" as="geometry" />
        </mxCell>
        <mxCell id="CtAxv3VmGFunPMmdJVhV-49" value="Includes" style="endArrow=classic;html=1;rounded=0;exitX=1;exitY=1;exitDx=0;exitDy=0;entryX=0.114;entryY=0.264;entryDx=0;entryDy=0;entryPerimeter=0;" edge="1" parent="1" source="CtAxv3VmGFunPMmdJVhV-7" target="CtAxv3VmGFunPMmdJVhV-15">
          <mxGeometry relative="1" as="geometry">
            <mxPoint x="285" y="-610" as="sourcePoint" />
            <mxPoint x="410" y="-685" as="targetPoint" />
          </mxGeometry>
        </mxCell>
        <mxCell id="CtAxv3VmGFunPMmdJVhV-52" value="Includes" style="endArrow=classic;html=1;rounded=0;exitX=1;exitY=0.5;exitDx=0;exitDy=0;entryX=0;entryY=0.5;entryDx=0;entryDy=0;" edge="1" parent="1" source="CtAxv3VmGFunPMmdJVhV-5" target="CtAxv3VmGFunPMmdJVhV-48">
          <mxGeometry relative="1" as="geometry">
            <mxPoint x="285" y="-610" as="sourcePoint" />
            <mxPoint x="410" y="-685" as="targetPoint" />
          </mxGeometry>
        </mxCell>
        <mxCell id="CtAxv3VmGFunPMmdJVhV-53" value="&lt;font style=&quot;font-size: 8px;&quot;&gt;Arrange privarte meetings&lt;/font&gt;" style="ellipse;whiteSpace=wrap;html=1;" vertex="1" parent="1">
          <mxGeometry x="120" y="-810" width="70" height="40" as="geometry" />
        </mxCell>
        <mxCell id="CtAxv3VmGFunPMmdJVhV-54" value="" style="endArrow=classic;html=1;rounded=0;entryX=0.5;entryY=0;entryDx=0;entryDy=0;" edge="1" parent="1" source="CtAxv3VmGFunPMmdJVhV-2" target="CtAxv3VmGFunPMmdJVhV-53">
          <mxGeometry width="50" height="50" relative="1" as="geometry">
            <mxPoint x="440" y="-810" as="sourcePoint" />
            <mxPoint x="490" y="-860" as="targetPoint" />
          </mxGeometry>
        </mxCell>
        <mxCell id="CtAxv3VmGFunPMmdJVhV-55" value="" style="endArrow=classic;html=1;rounded=0;entryX=0.5;entryY=1;entryDx=0;entryDy=0;" edge="1" parent="1" source="CtAxv3VmGFunPMmdJVhV-3" target="CtAxv3VmGFunPMmdJVhV-53">
          <mxGeometry width="50" height="50" relative="1" as="geometry">
            <mxPoint x="60" y="-949" as="sourcePoint" />
            <mxPoint x="165" y="-800" as="targetPoint" />
          </mxGeometry>
        </mxCell>
      </root>
    </mxGraphModel>
  </diagram>
</mxfile>
